# xmcd
#
# Track frame offsets:
#	183
#	85608
#	164583
#	191670
#	250683
#
# Disc length: 3889 seconds
#
# Revision: 0
# Processed by: cddbd v1.5.2PL0 Copyright (c) Steve Scherf et al.
# Submitted via: EasyCDDAExtractor 16.0.8.2
#
DISCID=360f2f05
DTITLE=Άνευ ερμηνευτού - The 9 Symphonies-Beethoven 3
DYEAR=1991
DGENRE=Κλασική
TTITLE0=S. 3 in E flat major, op.55 "Eroica" I. Allegro con brio
TTITLE1=S. 3 in E flat major, op.55 "Eroica" II. Marcia funebre: Adagio assai
TTITLE2=S. 3 in E flat major, op.55 "Eroica" III. Scherzo: Allegro vivace
TTITLE3=S. 3 in E flat major, op.55 "Eroica" IV. Finale: Allegro molto
TTITLE4=Egmont Overture in F minor, op.84 Sostenuto, ma non troppo - Allegro
EXTD=
EXTT0=
EXTT1=
EXTT2=
EXTT3=
EXTT4=
PLAYORDER=
